#!OML:ASF F:\VICON\USERDATA\INSTALL\rory3\rory3.ASF
:FULLY-SPECIFIED
:DEGREES
2535
root 15.5499 17.7725 -10.4064 360.23 -19.8179 2.2578
lowerback 11.1155 -6.15965 -9.09567
upperback -0.738346 -9.14101 5.16229
thorax -4.70466 -4.26931 11.9278
lowerneck 2.84712 -15.8875 -12.8333
upperneck 35.8863 -29.8714 14.1565
head 17.2173 -13.7394 3.3632
rclavicle 6.69904e-014 1.35174e-014
rhumerus -46.3911 -23.8785 -63.1231
rradius 32.913
rwrist 2.35968
rhand -15.8047 7.68362
rfingers 7.12502
rthumb 10.3886 -22.0398
lclavicle 6.69904e-014 1.35174e-014
lhumerus -31.8974 5.23334 86.6765
lradius 38.928
lwrist -5.5669
lhand -15.8527 27.2626
lfingers 7.12502
lthumb 10.3423 56.9882
rfemur -20.9523 -1.33752 19.2363
rtibia 40.8795
rfoot -17.8188 -13.3166
rtoes 17.9213
lfemur 1.0882 6.89863 -20.1182
ltibia 19.4211
lfoot -14.6156 4.4744
ltoes -20.6427
2536
root 15.5742 17.7714 -10.4366 360.07 -19.0183 2.80854
lowerback 10.9735 -6.02921 -9.63175
upperback -0.714615 -9.03774 4.8765
thorax -4.59421 -4.21357 11.8814
lowerneck 2.62633 -15.9373 -12.4868
upperneck 35.9741 -29.8462 13.9844
head 17.1901 -13.6744 3.23672
rclavicle -6.38099e-014 7.95139e-016
rhumerus -46.3611 -23.4578 -63.8486
rradius 33.1104
rwrist 2.14877
rhand -16.2907 7.29191
rfingers 7.12502
rthumb 9.91973 -22.4544
lclavicle -6.38099e-014 7.95139e-016
lhumerus -31.738 4.86039 86.7722
lradius 39.1883
lwrist -5.4675
lhand -16.2589 27.5947
lfingers 7.12502
lthumb 9.9504 57.3395
rfemur -21.129 -1.24588 18.4994
rtibia 41.1456
rfoot -18.0495 -12.895
rtoes 17.092
lfemur 1.07177 6.55406 -20.7172
ltibia 19.071
lfoot -14.6485 3.92055
ltoes -20.6259
2537
root 15.5949 17.7697 -10.4725 359.91 -18.2473 2.87867
lowerback 11.0427 -5.89399 -9.74686
upperback -0.659176 -8.88313 4.70529
thorax -4.62529 -4.13267 11.7515
lowerneck 2.59817 -15.9155 -12.335
upperneck 35.9332 -29.7691 14.0333
head 17.1384 -13.6149 3.25628
rclavicle -1.47101e-014 1.03368e-014
rhumerus -46.3282 -22.9423 -64.5008
rradius 33.2284
rwrist 1.92356
rhand -16.2365 7.17449
rfingers 7.12502
rthumb 9.97197 -22.5693
lclavicle -1.47101e-014 1.03368e-014
lhumerus -31.5577 4.5982 86.837
lradius 39.3134
lwrist -5.34544
lhand -16.2298 27.711
lfingers 7.12502
lthumb 9.97846 57.4545
rfemur -21.1331 -1.07604 18.3148
rtibia 41.4106
rfoot -18.238 -12.5752
rtoes 15.3225
lfemur 1.17361 6.18111 -20.7389
ltibia 18.7483
lfoot -14.6402 3.11019
ltoes -20.0115
2538
root 15.6138 17.7704 -10.5091 359.736 -17.3404 3.00173
lowerback 11.2707 -5.76795 -9.90215
upperback -0.672084 -8.76317 4.51859
thorax -4.80636 -4.05247 11.6609
lowerneck 2.57519 -15.9478 -12.2757
upperneck 35.9791 -29.8245 14.1011
head 17.1911 -13.6157 3.2627
rclavicle -4.33351e-014 2.22639e-014
rhumerus -46.4536 -22.2146 -65.1848
rradius 33.4835
rwrist 1.58427
rhand -16.3934 7.01457
rfingers 7.12502
rthumb 9.82062 -22.7364
lclavicle -4.33351e-014 2.22639e-014
lhumerus -31.4226 4.34431 86.8525
lradius 39.3233
lwrist -5.22073
lhand -16.2173 27.5745
lfingers 7.12502
lthumb 9.99048 57.3174
rfemur -21.0935 -0.849284 18.0673
rtibia 41.6452
rfoot -18.4772 -12.226
rtoes 13.8066
lfemur 1.14005 5.84024 -20.7745
ltibia 18.6188
lfoot -14.5787 2.15381
ltoes -20.0856
2539
root 15.6299 17.7726 -10.5423 359.615 -16.3925 3.32884
lowerback 11.3628 -5.67742 -10.2632
upperback -0.715047 -8.71034 4.3117
thorax -4.89995 -4.00648 11.6506
lowerneck 2.50424 -15.9684 -12.2844
upperneck 36.1621 -29.8562 14.0634
head 17.3131 -13.6136 3.2346
rclavicle 3.88624e-014 7.95139e-015
rhumerus -46.439 -21.5867 -65.8293
rradius 33.5468
rwrist 1.55841
rhand -17.0395 6.57658
rfingers 7.12502
rthumb 9.19722 -23.2029
lclavicle 3.88624e-014 7.95139e-015
lhumerus -31.3084 4.25475 86.8376
lradius 39.3287
lwrist -5.28844
lhand -16.1536 27.6159
lfingers 7.12502
lthumb 10.0519 57.3559
rfemur -21.1415 -0.590562 17.571
rtibia 41.8642
rfoot -18.8208 -11.6686
rtoes 13.387
lfemur 0.917388 5.65119 -21.0263
ltibia 18.6734
lfoot -14.5857 1.27867
ltoes -20.7818
2540
root 15.6395 17.7727 -10.5759 359.591 -15.5649 3.44722
lowerback 11.3008 -5.6047 -10.5248
upperback -0.70481 -8.64699 4.21731
thorax -4.84895 -3.97278 11.679
lowerneck 2.41918 -15.8593 -12.3572
upperneck 36.292 -29.6601 14.0564
head 17.3775 -13.5244 3.28032
rclavicle 8.88567e-014 -1.19271e-014
rhumerus -46.1309 -21.9197 -65.9003
rradius 32.9202
rwrist 2.59352
rhand -17.2868 6.38411
rfingers 7.12502
rthumb 8.95861 -23.4057
lclavicle 8.88567e-014 -1.19271e-014
lhumerus -31.2807 4.41182 86.827
lradius 39.5429
lwrist -5.14924
lhand -15.5878 28.3208
lfingers 7.12502
lthumb 10.5978 58.0335
rfemur -21.221 -0.0587825 17.3181
rtibia 42.078
rfoot -19.1657 -11.1375
rtoes 13.0735
lfemur 0.619105 5.53612 -21.0451
ltibia 18.7962
lfoot -14.6564 0.432649
ltoes -20.6966
2541
root 15.6464 17.7744 -10.6094 359.483 -14.7716 3.43592
lowerback 11.2819 -5.48536 -10.5913
upperback -0.583871 -8.49673 4.07144
thorax -4.76139 -3.90915 11.529
lowerneck 2.11163 -15.8015 -12.0738
upperneck 36.4423 -29.452 13.8475
head 17.3685 -13.385 3.18012
rclavicle 8.19987e-014 -1.59028e-014
rhumerus -45.6594 -23.0325 -65.7324
rradius 31.8224
rwrist 3.94891
rhand -17.3455 6.53451
rfingers 7.12502
rthumb 8.90192 -23.2577
lclavicle 8.19987e-014 -1.59028e-014
lhumerus -31.1847 4.34732 86.7547
lradius 39.748
lwrist -4.81623
lhand -15.0725 28.6648
lfingers 7.12502
lthumb 11.0949 58.3515
rfemur -21.1381 0.494057 17.2255
rtibia 42.2661
rfoot -19.4467 -10.5462
rtoes 12.5059
lfemur 0.434872 5.35958 -20.9236
ltibia 18.9581
lfoot -14.7293 -0.321491
ltoes -20.3826
2542
root 15.6543 17.7792 -10.6424 359.389 -13.862 3.35016
lowerback 11.241 -5.38612 -10.4714
upperback -0.417686 -8.34578 3.88605
thorax -4.64408 -3.85428 11.2224
lowerneck 1.62775 -15.8295 -11.4551
upperneck 36.6201 -29.2659 13.3611
head 17.2736 -13.2223 2.90224
rclavicle 1.46107e-014 3.97569e-014
rhumerus -45.2571 -23.8491 -65.8401
rradius 31.0286
rwrist 4.90628
rhand -17.3995 6.66824
rfingers 7.12502
rthumb 8.84982 -23.1262
lclavicle 1.46107e-014 3.97569e-014
lhumerus -30.8746 3.98886 86.664
lradius 39.7545
lwrist -4.54775
lhand -15.0082 28.9258
lfingers 7.12502
lthumb 11.1569 58.6092
rfemur -20.9955 0.807284 17.2082
rtibia 42.398
rfoot -19.5002 -9.786
rtoes 11.0959
lfemur 0.276077 5.00255 -20.7571
ltibia 19.1312
lfoot -14.8544 -0.885746
ltoes -20.6531
2543
root 15.6638 17.7831 -10.6723 359.343 -12.9703 3.26997
lowerback 11.2495 -5.31004 -10.3796
upperback -0.378541 -8.23492 3.79793
thorax -4.66146 -3.80144 11.0623
lowerneck 1.31316 -15.797 -11.1632
upperneck 36.8547 -29.0426 12.9511
head 17.2587 -13.0889 2.72108
rclavicle 3.30976e-014 -1.82882e-014
rhumerus -45.0711 -24.1819 -65.8434
rradius 30.5325
rwrist 5.87368
rhand -17.2905 6.67746
rfingers 7.12502
rthumb 8.95502 -23.1125
lclavicle 3.30976e-014 -1.82882e-014
lhumerus -30.6227 3.84071 86.6948
lradius 39.5814
lwrist -3.9978
lhand -14.8275 29.6349
lfingers 7.12502
lthumb 11.3311 59.3088
rfemur -20.8805 1.14797 17.1652
rtibia 42.482
rfoot -19.3462 -8.94947
rtoes 8.73937
lfemur 0.0976421 4.68665 -20.6184
ltibia 19.256
lfoot -14.9708 -1.47426
ltoes -20.5992
2544
root 15.6728 17.7848 -10.6991 359.288 -12.168 3.26942
lowerback 11.3089 -5.24288 -10.3991
upperback -0.423321 -8.15792 3.73871
thorax -4.76937 -3.75157 11.0147
lowerneck 1.24192 -15.664 -11.2733
upperneck 37.0141 -28.8136 12.9268
head 17.336 -12.9918 2.77136
rclavicle -8.17005e-014 -1.35174e-014
rhumerus -44.991 -24.1986 -65.8792
rradius 30.1991
rwrist 6.52813
rhand -17.1508 6.54719
rfingers 7.12502
rthumb 9.08984 -23.2369
lclavicle -8.17005e-014 -1.35174e-014
lhumerus -30.6675 4.01775 86.6836
lradius 39.532
lwrist -3.31321
lhand -14.4615 30.1872
lfingers 7.12502
lthumb 11.684 59.8413
rfemur -20.7408 1.55204 17.0294
rtibia 42.5423
rfoot -19.2571 -8.15145
rtoes 6.04538
lfemur -0.0487597 4.29986 -20.5979
ltibia 19.311
lfoot -15.0429 -1.94428
ltoes -20.2679
